<svg id="Layer_1" data-name="Layer 1" xmlns="http://www.w3.org/2000/svg" viewBox="0 0 300.36 454.54"><defs><style>.cls-1{fill:#fff;}</style></defs><path class="cls-1" d="M690.18,315.19a12.58,12.58,0,0,0-14.83,10.14,11.25,11.25,0,0,0-.22,2.26V552.93a135.54,135.54,0,0,1-124.25,120H530A135.57,135.57,0,0,1,405,541.25V328.44a6.12,6.12,0,0,0,0-.85,6,6,0,0,0,0-.85,12.62,12.62,0,0,0-15.14-11.53,46.81,46.81,0,0,1,15.09-2.48c.26,0,.55,0,.81,0a47.33,47.33,0,0,1,46.55,47.34V537.75c.77,48.66,40.92,87.73,88.17,87.55,48.89-.18,89.51-42.34,87.4-92.69v-175a47.33,47.33,0,0,1,46.49-44.9h.8v0A46.56,46.56,0,0,1,690.18,315.19Z" transform="translate(-389.82 -312.73)"/><path class="cls-1" d="M675.13,590.5V720.89c0,2.81-.79,23.66-18.16,37a47.1,47.1,0,0,1-29.13,9.41V653.45A144.51,144.51,0,0,0,675.13,590.5Z" transform="translate(-389.82 -312.73)"/><path class="cls-1" d="M452.13,653.45V767.26A47.1,47.1,0,0,1,423,757.85c-17.37-13.3-18.11-34.15-18.16-37V590.5A144.51,144.51,0,0,0,452.13,653.45Z" transform="translate(-389.82 -312.73)"/></svg>